<?xml version="1.0" encoding="iso-8859-1"?>
<!-- Generator: Adobe Illustrator 19.0.0, SVG Export Plug-In . SVG Version: 6.00 Build 0)  -->
<svg version="1.1" id="Capa_1" xmlns="http://www.w3.org/2000/svg" xmlns:xlink="http://www.w3.org/1999/xlink" x="0px" y="0px"
	 viewBox="0 0 496 496" style="enable-background:new 0 0 496 496;" xml:space="preserve">
<g>
	<path style="fill:#E56565;" d="M120,376c-13.232,0-24-10.768-24-24s10.768-24,24-24s24,10.768,24,24S133.232,376,120,376z M120,344
		c-4.408,0-8,3.584-8,8s3.592,8,8,8c4.408,0,8-3.584,8-8S124.408,344,120,344z"/>
	<path style="fill:#E56565;" d="M184,376c-13.232,0-24-10.768-24-24s10.768-24,24-24s24,10.768,24,24S197.232,376,184,376z M184,344
		c-4.408,0-8,3.584-8,8s3.592,8,8,8s8-3.584,8-8S188.408,344,184,344z"/>
	<path style="fill:#E56565;" d="M248,376c-13.232,0-24-10.768-24-24s10.768-24,24-24s24,10.768,24,24S261.232,376,248,376z M248,344
		c-4.408,0-8,3.584-8,8s3.592,8,8,8c4.408,0,8-3.584,8-8S252.408,344,248,344z"/>
</g>
<rect x="88" y="392" style="fill:#FFCB57;" width="320" height="96"/>
<g>
	<path style="fill:#E56565;" d="M312,376c-13.232,0-24-10.768-24-24s10.768-24,24-24s24,10.768,24,24S325.232,376,312,376z M312,344
		c-4.408,0-8,3.584-8,8s3.592,8,8,8s8-3.584,8-8S316.408,344,312,344z"/>
	<path style="fill:#E56565;" d="M376,376c-13.232,0-24-10.768-24-24s10.768-24,24-24s24,10.768,24,24S389.232,376,376,376z M376,344
		c-4.408,0-8,3.584-8,8s3.592,8,8,8s8-3.584,8-8S380.408,344,376,344z"/>
</g>
<rect x="8" y="104" style="fill:#FFCB57;" width="480" height="48"/>
<g>
	<path style="fill:#3F3A34;" d="M432,304h-32.208c5.08-6.704,8.208-14.96,8.208-24c17.648,0,32-14.352,32-32s-14.352-32-32-32
		h-2.224c-2.776-4.76-7.88-8-13.776-8v-8c0-13.232-10.768-24-24-24h-32c-13.232,0-24,10.768-24,24v8c-5.896,0-11,3.24-13.776,8H296
		c-17.648,0-32,14.352-32,32s14.352,32,32,32c0,9.04,3.128,17.296,8.208,24h-96.416c5.08-6.704,8.208-14.96,8.208-24
		c17.648,0,32-14.352,32-32s-14.352-32-32-32h-2.224c-2.776-4.76-7.88-8-13.776-8h-96c-5.896,0-11,3.24-13.776,8H88
		c-17.648,0-32,14.352-32,32s14.352,32,32,32c0,9.04,3.128,17.296,8.208,24H64c-13.232,0-24,10.768-24,24v168h416V328
		C456,314.768,445.232,304,432,304z M424,248c0,8.824-7.176,16-16,16v-32C416.824,232,424,239.176,424,248z M328,200
		c0-4.408,3.592-8,8-8h32c4.408,0,8,3.592,8,8v8h-48V200z M280,248c0-8.824,7.176-16,16-16v32C287.176,264,280,256.824,280,248z
		 M312,280v-56h80v56c0,13.232-10.768,24-24,24h-32C322.768,304,312,293.232,312,280z M232,248c0,8.824-7.176,16-16,16v-32
		C224.824,232,232,239.176,232,248z M72,248c0-8.824,7.176-16,16-16v32C79.176,264,72,256.824,72,248z M104,280v-56h96v56
		c0,13.232-10.768,24-24,24h-48C114.768,304,104,293.232,104,280z M440,480h-32v-64h-16v64H104v-64H88v64H56V328
		c0-4.416,3.592-8,8-8h64h48h160h32h64c4.408,0,8,3.584,8,8V480z"/>
	<rect x="72" y="384" style="fill:#3F3A34;" width="352" height="16"/>
	<path style="fill:#3F3A34;" d="M0,96v64h496V96H0z M480,144H16v-32h464V144z"/>
	<polygon style="fill:#3F3A34;" points="32,48 424,48 424,32 43.312,32 59.312,16 436.688,16 452.688,32 440,32 440,48 464,48 
		464,80 480,80 480,36.688 443.312,0 52.688,0 16,36.688 16,80 32,80 	"/>
</g>
<g>
</g>
<g>
</g>
<g>
</g>
<g>
</g>
<g>
</g>
<g>
</g>
<g>
</g>
<g>
</g>
<g>
</g>
<g>
</g>
<g>
</g>
<g>
</g>
<g>
</g>
<g>
</g>
<g>
</g>
</svg>
