<?xml version="1.0" encoding="iso-8859-1"?>
<!-- Generator: Adobe Illustrator 19.0.0, SVG Export Plug-In . SVG Version: 6.00 Build 0)  -->
<svg version="1.1" id="Layer_1" xmlns="http://www.w3.org/2000/svg" xmlns:xlink="http://www.w3.org/1999/xlink" x="0px" y="0px"
	 viewBox="0 0 496 496" style="enable-background:new 0 0 496 496;" xml:space="preserve">
<path style="fill:#F9BA48;" d="M160,432H48c-4.416,0-8-3.584-8-8v-32c0-4.416,3.584-8,8-8h112c4.416,0,8,3.584,8,8v32
	C168,428.416,164.416,432,160,432z"/>
<g>
	<path style="fill:#333333;" d="M456,344H80V128c0-13.232-10.768-24-24-24s-24,10.768-24,24v216.808C13.768,348.528,0,364.688,0,384
		v48c0,16.36,9.896,30.416,24,36.608V480c0,8.824,7.176,16,16,16h32c8.824,0,16-7.176,16-16v-8h312v8c0,8.824,7.176,16,16,16h32
		c8.824,0,16-7.176,16-16v-8.808c18.232-3.72,32-19.872,32-39.192v-48C496,361.944,478.056,344,456,344z M48,128
		c0-4.416,3.584-8,8-8s8,3.584,8,8v216H48V128z M72.016,480H40v-8h32.008L72.016,480z M416,480v-8h32.008l0.008,8H416z M480,432
		c0,13.232-10.768,24-24,24h-56H88H40c-13.232,0-24-10.768-24-24v-48c0-13.232,10.768-24,24-24h40h376c13.232,0,24,10.768,24,24V432
		z"/>
	<rect x="448" y="400" style="fill:#333333;" width="16" height="16"/>
	<rect x="416" y="400" style="fill:#333333;" width="16" height="16"/>
	<rect x="384" y="400" style="fill:#333333;" width="16" height="16"/>
	<rect x="352" y="400" style="fill:#333333;" width="16" height="16"/>
	<path style="fill:#333333;" d="M160,208c13.232,0,24-10.768,24-24s-10.768-24-24-24s-24,10.768-24,24S146.768,208,160,208z
		 M160,176c4.416,0,8,3.584,8,8s-3.584,8-8,8s-8-3.584-8-8S155.584,176,160,176z"/>
	<path style="fill:#333333;" d="M208,184h16c0-35.288-28.712-64-64-64v16C186.472,136,208,157.528,208,184z"/>
	<path style="fill:#333333;" d="M248,184h16c0-57.344-46.656-104-104-104v16C208.52,96,248,135.48,248,184z"/>
	<path style="fill:#333333;" d="M288,184h16c0-79.4-64.6-144-144-144v16C230.576,56,288,113.424,288,184z"/>
	<path style="fill:#333333;" d="M328,184h16C344,82.536,261.464,0,160,0v16C252.632,16,328,91.368,328,184z"/>
</g>
<g>
</g>
<g>
</g>
<g>
</g>
<g>
</g>
<g>
</g>
<g>
</g>
<g>
</g>
<g>
</g>
<g>
</g>
<g>
</g>
<g>
</g>
<g>
</g>
<g>
</g>
<g>
</g>
<g>
</g>
</svg>
