<?xml version="1.0" encoding="iso-8859-1"?>
<!-- Generator: Adobe Illustrator 19.0.0, SVG Export Plug-In . SVG Version: 6.00 Build 0)  -->
<svg version="1.1" id="Layer_1" xmlns="http://www.w3.org/2000/svg" xmlns:xlink="http://www.w3.org/1999/xlink" x="0px" y="0px"
	 viewBox="0 0 290.626 290.626" style="enable-background:new 0 0 290.626 290.626;" xml:space="preserve">
<g>
	<g>
		<rect x="89.137" style="fill:#F9BA48;" width="9.375" height="65.625"/>
		<rect x="117.262" style="fill:#F9BA48;" width="9.375" height="65.625"/>
		<rect x="145.387" style="fill:#F9BA48;" width="9.375" height="65.625"/>
		<rect x="173.513" style="fill:#F9BA48;" width="9.375" height="65.625"/>
		<rect x="201.638" style="fill:#F9BA48;" width="9.375" height="65.625"/>
		<rect x="229.763" style="fill:#F9BA48;" width="9.375" height="65.625"/>
		<circle style="fill:#333333;" cx="243.68" cy="262.5" r="4.688"/>
		<path style="fill:#333333;" d="M267.263,18.75h-42.188v9.375h-47.738c-1.941-5.442-7.097-9.375-13.2-9.375H143.69
			c-1.242-4.425-3.127-8.663-5.719-12.548C135.38,2.316,131.044,0,126.375,0c-5.311,0-10.083,2.953-12.459,7.702
			c-2.377,4.753-1.87,10.341,1.308,14.587c1.336,1.777,2.039,3.886,2.039,6.098v8.855c0,2.213-0.703,4.322-2.034,6.098
			c-3.188,4.247-3.689,9.839-1.313,14.587c2.377,4.744,7.153,7.697,12.459,7.697c4.669,0,9.005-2.316,11.597-6.202
			c2.588-3.886,4.472-8.123,5.719-12.548h20.447c6.103,0,11.259-3.933,13.2-9.375h47.738v9.375h42.188
			c7.753,0,14.063-6.309,14.063-14.063S275.016,18.75,267.263,18.75z M130.172,54.22c-1.828,2.728-6.403,2.442-7.87-0.487
			c-0.792-1.58-0.633-3.366,0.431-4.777c2.517-3.361,3.905-7.523,3.905-11.719v-8.85c0-4.195-1.387-8.353-3.909-11.719
			c-1.059-1.411-1.219-3.197-0.427-4.777c0.787-1.575,2.311-2.517,4.073-2.517c1.528,0,2.948,0.759,3.797,2.03
			c3.82,5.733,5.841,12.408,5.841,19.298v4.219C136.012,41.813,133.992,48.487,130.172,54.22z M164.138,37.5H145.2
			c0.047-0.862,0.188-1.711,0.188-2.578v-4.219c0-0.867-0.141-1.716-0.188-2.578h18.938c2.587,0,4.688,2.1,4.688,4.687
			C168.825,35.4,166.725,37.5,164.138,37.5z M267.263,37.5H234.45v-9.375h32.813c2.587,0,4.688,2.1,4.688,4.688
			S269.85,37.5,267.263,37.5z"/>
		<path style="fill:#333333;" d="M51.637,84.375h9.347c0.52,11.531,2.953,22.561,6.97,32.813H36.562
			c-1.941-5.442-7.097-9.375-13.2-9.375c-7.753,0-14.063,6.309-14.063,14.063s6.309,14.063,14.063,14.063
			c6.103,0,11.259-3.933,13.2-9.375h35.616c7.383,14.405,18.047,26.855,31.013,36.352l-32.79,121.803l9.056,2.438l20.517-76.219
			H222.44l6.858,27.436c-8.217,4.917-13.748,13.875-13.748,24.127c0,15.511,12.614,28.125,28.125,28.125S271.8,278.011,271.8,262.5
			s-12.614-28.125-28.125-28.125c-1.908,0-3.773,0.197-5.578,0.558l-17.311-69.234c26.672-17.667,44.686-47.381,46.209-81.323h9.642
			V75h-225C51.637,75,51.637,84.375,51.637,84.375z M23.367,126.563c-2.588,0-4.688-2.1-4.688-4.688s2.1-4.688,4.688-4.688
			s4.688,2.1,4.688,4.688S25.955,126.563,23.367,126.563z M262.43,262.5c0,10.341-8.409,18.75-18.75,18.75s-18.75-8.409-18.75-18.75
			s8.409-18.75,18.75-18.75S262.43,252.159,262.43,262.5z M220.097,201.563H102.502l8.939-33.192
			c15.398,9.159,33.366,14.442,52.552,14.442c17.484,0,33.956-4.387,48.398-12.098L220.097,201.563z M255.853,98.438H234.45v9.375
			h18.966c-11.977,37.992-47.527,65.625-89.428,65.625s-77.452-27.633-89.428-65.625h150.516v-9.375H72.131
			c-0.933-4.566-1.416-9.281-1.65-14.063h187.027C257.264,89.156,256.781,93.872,255.853,98.438z"/>
	</g>
</g>
<g>
</g>
<g>
</g>
<g>
</g>
<g>
</g>
<g>
</g>
<g>
</g>
<g>
</g>
<g>
</g>
<g>
</g>
<g>
</g>
<g>
</g>
<g>
</g>
<g>
</g>
<g>
</g>
<g>
</g>
</svg>
