<?xml version="1.0" encoding="iso-8859-1"?>
<!-- Generator: Adobe Illustrator 19.0.0, SVG Export Plug-In . SVG Version: 6.00 Build 0)  -->
<svg version="1.1" id="Capa_1" xmlns="http://www.w3.org/2000/svg" xmlns:xlink="http://www.w3.org/1999/xlink" x="0px" y="0px"
	 viewBox="0 0 496 496" style="enable-background:new 0 0 496 496;" xml:space="preserve">
<g>
	<path style="fill:#FFA64D;" d="M72,200c0,83.944,35.816,152,80,152s80-68.056,80-152c0-5.416-0.208-10.736-0.496-16.008
		c-85.584-0.12-95.264-30.584-155.384-31.928C73.464,167.128,72,183.224,72,200z"/>
	<path style="fill:#FFA64D;" d="M264,200c0,83.944,35.816,152,80,152s80-68.056,80-152c0-5.416-0.208-10.736-0.496-16.008
		c-85.584-0.12-95.264-30.584-155.384-31.928C265.464,167.128,264,183.224,264,200z"/>
</g>
<g>
	<path style="fill:#333333;" d="M222.648,104H81.352l-1.952,5.184C69.328,135.952,64,167.36,64,200
		c0,84.8,34.544,152.152,80,159.288V480H80v16h144v-16h-64V359.288c45.456-7.136,80-74.488,80-159.288
		c0-32.64-5.328-64.048-15.4-90.816L222.648,104z M152,344c-39.024,0-72-65.944-72-144c0-28.64,4.32-56.168,12.512-80h118.976
		C219.68,143.832,224,171.36,224,200C224,278.056,191.024,344,152,344z"/>
	<rect x="104" y="184" style="fill:#333333;" width="16" height="16"/>
	<rect x="128" y="272" style="fill:#333333;" width="16" height="16"/>
	<rect x="184" y="240" style="fill:#333333;" width="16" height="16"/>
	<path style="fill:#333333;" d="M352,359.288c45.456-7.136,80-74.488,80-159.288c0-32.64-5.328-64.048-15.4-90.816L414.648,104
		H273.352l-1.952,5.184C261.328,135.952,256,167.36,256,200c0,84.8,34.544,152.152,80,159.288V480h-64v16h144v-16h-64V359.288z
		 M272,200c0-28.64,4.32-56.168,12.512-80h118.976C411.68,143.832,416,171.36,416,200c0,78.056-32.976,144-72,144
		S272,278.056,272,200z"/>
	<rect x="288" y="224" style="fill:#333333;" width="16" height="16"/>
	<rect x="360" y="296" style="fill:#333333;" width="16" height="16"/>
	<rect x="376" y="208" style="fill:#333333;" width="16" height="16"/>
	<rect x="344" y="256" style="fill:#333333;" width="16" height="16"/>
	<rect x="440" style="fill:#333333;" width="16" height="24"/>
	
		<rect x="414.515" y="10.52" transform="matrix(-0.7071 0.7071 -0.7071 -0.7071 737.2028 -260.3194)" style="fill:#333333;" width="16" height="24"/>
	<rect x="400" y="40" style="fill:#333333;" width="24" height="16"/>
	
		<rect x="410.551" y="65.469" transform="matrix(-0.7071 0.7071 -0.7071 -0.7071 773.2889 -173.3696)" style="fill:#333333;" width="24" height="16"/>
	<rect x="440" y="72" style="fill:#333333;" width="16" height="24"/>
	
		<rect x="465.44" y="61.467" transform="matrix(-0.7071 0.7071 -0.7071 -0.7071 860.1614 -209.3559)" style="fill:#333333;" width="16" height="24"/>
	<rect x="472" y="40" style="fill:#333333;" width="24" height="16"/>
	
		<rect x="461.451" y="14.544" transform="matrix(-0.7071 0.7071 -0.7071 -0.7071 824.1729 -296.2953)" style="fill:#333333;" width="24" height="16"/>
	<rect x="40" y="320" style="fill:#333333;" width="16" height="24"/>
	
		<rect x="14.551" y="330.555" transform="matrix(-0.7071 0.7071 -0.7071 -0.7071 280.7195 568.8328)" style="fill:#333333;" width="16" height="24"/>
	<rect y="360" style="fill:#333333;" width="24" height="16"/>
	
		<rect x="10.496" y="385.445" transform="matrix(-0.7071 0.7071 -0.7071 -0.7071 316.6102 655.7449)" style="fill:#333333;" width="24" height="16"/>
	<rect x="40" y="392" style="fill:#333333;" width="16" height="24"/>
	
		<rect x="65.451" y="381.456" transform="matrix(-0.7071 0.7071 -0.7071 -0.7071 403.6042 619.7336)" style="fill:#333333;" width="16" height="24"/>
	<rect x="72" y="360" style="fill:#333333;" width="24" height="16"/>
	
		<rect x="61.467" y="334.512" transform="matrix(-0.7071 0.7071 -0.7071 -0.7071 367.609 532.7556)" style="fill:#333333;" width="24" height="16"/>
	<rect x="416" y="352" style="fill:#333333;" width="16" height="16"/>
	<rect x="416" y="384" style="fill:#333333;" width="16" height="16"/>
	<rect x="432" y="368" style="fill:#333333;" width="16" height="16"/>
	<rect x="400" y="368" style="fill:#333333;" width="16" height="16"/>
	<rect x="264" y="24" style="fill:#333333;" width="16" height="16"/>
	<rect x="264" y="56" style="fill:#333333;" width="16" height="16"/>
	<rect x="280" y="40" style="fill:#333333;" width="16" height="16"/>
	<rect x="248" y="40" style="fill:#333333;" width="16" height="16"/>
	<rect x="120" style="fill:#333333;" width="16" height="16"/>
	<rect x="120" y="32" style="fill:#333333;" width="16" height="16"/>
	<rect x="136" y="16" style="fill:#333333;" width="16" height="16"/>
	<rect x="104" y="16" style="fill:#333333;" width="16" height="16"/>
	<rect x="16" y="88" style="fill:#333333;" width="16" height="16"/>
	<rect x="16" y="120" style="fill:#333333;" width="16" height="16"/>
	<rect x="32" y="104" style="fill:#333333;" width="16" height="16"/>
	<rect y="104" style="fill:#333333;" width="16" height="16"/>
	<rect x="208" y="352" style="fill:#333333;" width="16" height="16"/>
	<rect x="208" y="384" style="fill:#333333;" width="16" height="16"/>
	<rect x="224" y="368" style="fill:#333333;" width="16" height="16"/>
	<rect x="192" y="368" style="fill:#333333;" width="16" height="16"/>
</g>
<g>
</g>
<g>
</g>
<g>
</g>
<g>
</g>
<g>
</g>
<g>
</g>
<g>
</g>
<g>
</g>
<g>
</g>
<g>
</g>
<g>
</g>
<g>
</g>
<g>
</g>
<g>
</g>
<g>
</g>
</svg>
