<?xml version="1.0" encoding="iso-8859-1"?>
<!-- Generator: Adobe Illustrator 19.0.0, SVG Export Plug-In . SVG Version: 6.00 Build 0)  -->
<svg version="1.1" id="Capa_1" xmlns="http://www.w3.org/2000/svg" xmlns:xlink="http://www.w3.org/1999/xlink" x="0px" y="0px"
	 viewBox="0 0 496 496" style="enable-background:new 0 0 496 496;" xml:space="preserve">
<g>
	<rect x="456" y="232" style="fill:#FFA64D;" width="32" height="16"/>
	<rect x="456" y="200" style="fill:#FFA64D;" width="32" height="16"/>
	<path style="fill:#FFA64D;" d="M240,384H32V48h208V384z"/>
</g>
<g>
	<path style="fill:#333333;" d="M184,192c-13.232,0-24,10.768-24,24s10.768,24,24,24s24-10.768,24-24S197.232,192,184,192z M184,224
		c-4.416,0-8-3.584-8-8s3.584-8,8-8s8,3.584,8,8S188.416,224,184,224z"/>
	<path style="fill:#333333;" d="M272,0h-8H0v416v8v72h496v-72v-8V144V96V0H272z M480,16v44.32C471.496,52.688,460.304,48,448,48h-80
		c-26.472,0-48,21.528-48,48v24h-8c-13.232,0-24,10.768-24,24v24h112v-24c0-13.232-10.768-24-24-24h-8v-16c0-4.416,3.584-8,8-8h64
		c4.416,0,8,3.584,8,8v160h-8c-13.232,0-24,10.768-24,24s10.768,24,24,24h8v104H272V16H480z M376,136c4.416,0,8,3.584,8,8v8h-80v-8
		c0-4.416,3.584-8,8-8H376z M480,296h-40c-4.416,0-8-3.584-8-8s3.584-8,8-8h40V296z M16,16h240v400H16V16z M16,480v-16h432v-16H16
		v-16h464v16h-16v16h16v16H16z M464,416V312h16v104H464z M480,264h-16V104c0-13.232-10.768-24-24-24h-64c-13.232,0-24,10.768-24,24
		v16h-16V96c0-17.648,14.352-32,32-32h80c17.648,0,32,14.352,32,32v48V264z"/>
	<rect x="336" y="190.432" style="fill:#333333;" width="16" height="24"/>
	<rect x="336" y="230.432" style="fill:#333333;" width="16" height="24"/>
	
		<rect x="366.012" y="182.393" transform="matrix(-0.866 0.5001 -0.5001 -0.866 795.1111 175.6948)" style="fill:#333333;" width="16" height="24.001"/>
	
		<rect x="386.028" y="217.06" transform="matrix(-0.8661 0.4999 -0.4999 -0.8661 849.7973 230.475)" style="fill:#333333;" width="16" height="24"/>
	
		<rect x="302.003" y="186.371" transform="matrix(-0.4999 0.8661 -0.8661 -0.4999 639.3143 19.582)" style="fill:#333333;" width="24" height="16"/>
	
		<rect x="282.012" y="221.007" transform="matrix(-0.5001 0.866 -0.866 -0.5001 639.3583 88.9241)" style="fill:#333333;" width="24.001" height="16"/>
</g>
<g>
</g>
<g>
</g>
<g>
</g>
<g>
</g>
<g>
</g>
<g>
</g>
<g>
</g>
<g>
</g>
<g>
</g>
<g>
</g>
<g>
</g>
<g>
</g>
<g>
</g>
<g>
</g>
<g>
</g>
</svg>
