<?xml version="1.0" encoding="iso-8859-1"?>
<!-- Generator: Adobe Illustrator 19.0.0, SVG Export Plug-In . SVG Version: 6.00 Build 0)  -->
<svg version="1.1" id="Layer_1" xmlns="http://www.w3.org/2000/svg" xmlns:xlink="http://www.w3.org/1999/xlink" x="0px" y="0px"
	 viewBox="0 0 482.528 482.528" style="enable-background:new 0 0 482.528 482.528;" xml:space="preserve">
<path style="fill:#F9BA48;" d="M184,313.056h-48v-24c0-13.232,10.768-24,24-24s24,10.768,24,24V313.056z"/>
<g>
	<path style="fill:#333333;" d="M304,449.056v-16H168v-8h136v-48c0-44.112-35.888-80-80-80H96c-44.112,0-80,35.888-80,80v48h136v8
		H16v16c0,8.824-7.176,16-16,16v16h320v-16C311.176,465.056,304,457.88,304,449.056z M32,377.056c0-35.288,28.712-64,64-64h128
		c35.288,0,64,28.712,64,64v32H32V377.056z M27.704,465.056c2.736-4.712,4.296-10.176,4.296-16h256c0,5.824,1.56,11.288,4.296,16
		H27.704z"/>
	<path style="fill:#333333;" d="M456,78.632c0,8.856-4.4,17.08-11.768,21.984c-4.352,2.912-9.416,4.44-14.656,4.44H352
		l-84.968,22.88c-2.712,0.744-5.528,1.12-8.368,1.12c-5.88,0-10.664-4.784-10.664-10.664v-2.352c0-3.872,2.104-7.448,5.488-9.328
		l62.4-34.664l-7.768-13.984l-12.592,6.992h-37.144c-7.752,0-15.408,1.24-22.768,3.696l-58.568,19.52
		c-1.56,0.52-3.184,0.784-4.824,0.784h-4.984c-8.408,0-15.24-6.832-15.24-15.24c0-6.568,4.184-12.384,10.432-14.472l70.24-23.416
		c5.728-1.904,11.688-2.872,17.712-2.872h182.912l49.232-16.416l-5.064-15.168l-46.76,15.584h-180.32
		c-7.752,0-15.408,1.24-22.768,3.696l-70.248,23.424C144.584,48.432,136,60.344,136,73.816c0,17.224,14.016,31.24,31.24,31.24h4.984
		c3.36,0,6.688-0.536,9.88-1.608l58.56-19.512c5.736-1.912,11.696-2.88,17.72-2.88h8.344l-21.016,11.672
		C237.256,97.432,232,106.36,232,116.04v2.352c0,14.704,11.96,26.664,26.664,26.664c4.272,0,8.512-0.568,12.584-1.688l81.824-22.312
		h76.504c8.408,0,16.544-2.464,23.528-7.128c11.16-7.432,18.072-19.584,18.824-32.872H480v-16h-24V78.632z"/>
	<rect x="152" y="177.056" style="fill:#333333;" width="16" height="48"/>
	
		<rect x="89.765" y="202.819" transform="matrix(-0.7071 0.7071 -0.7071 -0.7071 327.2769 318.0668)" style="fill:#333333;" width="16" height="47.992"/>
	<rect x="48" y="265.056" style="fill:#333333;" width="48" height="16"/>
	<rect x="224" y="265.056" style="fill:#333333;" width="48" height="16"/>
	
		<rect x="198.22" y="218.818" transform="matrix(-0.7071 0.7071 -0.7071 -0.7071 539.7298 230.0716)" style="fill:#333333;" width="47.992" height="16"/>
</g>
<g>
</g>
<g>
</g>
<g>
</g>
<g>
</g>
<g>
</g>
<g>
</g>
<g>
</g>
<g>
</g>
<g>
</g>
<g>
</g>
<g>
</g>
<g>
</g>
<g>
</g>
<g>
</g>
<g>
</g>
</svg>
